# xmcd
#
# Track frame offsets: 
#        150
#        17665
#        33645
#        50310
#        62490
#        80313
#        98040
#        113510
#        129600
#        149660
#
# Disc length: 2266 seconds
#
# Revision: 0
# Processed by: cddbd v1.5.1PL0 Copyright (c) Steve Scherf et al.
# Submitted via: ExactAudioCopy v0.95a5
#
DISCID=7e08d80a
DTITLE=Salem 66 - Down the Primrose Path
DYEAR=1900
DGENRE=A Cappella
TTITLE0=Thaw
TTITLE1=Bell Jar
TTITLE2=Beekeeper
TTITLE3=Ace of Spades
TTITLE4=Cherry
TTITLE5=Primrose Path
TTITLE6=Cinderella
TTITLE7=Sacred Prostitute
TTITLE8=Can't Hold a Candle to You
TTITLE9=Lost and Found
EXTD=
EXTT0=
EXTT1=
EXTT2=
EXTT3=
EXTT4=
EXTT5=
EXTT6=
EXTT7=
EXTT8=
EXTT9=
PLAYORDER=
